<svg width="24" height="24" viewBox="0 0 24 24" fill="none"
    xmlns="http://www.w3.org/2000/svg">
    <path d="M6.84 4.7376C6.94919 4.18932 7.21412 3.68414 7.60307 3.28258C7.99201 2.88102 8.48848 2.60009 9.03299 2.47346C9.5775 2.34683 10.147 2.37986 10.6732 2.56859C11.1994 2.75733 11.6601 3.09376 12 3.5376C12.3399 3.09376 12.8006 2.75733 13.3268 2.56859C13.853 2.37986 14.4225 2.34683 14.967 2.47346C15.5115 2.60009 16.008 2.88102 16.3969 3.28258C16.7859 3.68414 17.0508 4.18932 17.16 4.7376L17.31 5.49L17.7972 5.5872C18.531 5.73439 19.1912 6.13109 19.6657 6.70991C20.1402 7.28873 20.3996 8.01396 20.4 8.7624V9C20.4 9.8712 20.028 10.656 19.434 11.2044C20.1595 11.5639 20.7551 12.1405 21.1379 12.854C21.5208 13.5675 21.6719 14.3825 21.5703 15.1858C21.4687 15.9891 21.1194 16.7409 20.571 17.3366C20.0225 17.9323 19.3022 18.3424 18.51 18.51L18.4656 18.732C18.3273 19.4238 17.9871 20.059 17.4879 20.5575C16.9886 21.0559 16.3528 21.3951 15.6609 21.5323C14.9689 21.6695 14.2517 21.5984 13.6001 21.3281C12.9485 21.0578 12.3917 20.6003 12 20.0136C11.6083 20.6003 11.0515 21.0578 10.3999 21.3281C9.74826 21.5984 9.03114 21.6695 8.33914 21.5323C7.64715 21.3951 7.01136 21.0559 6.51213 20.5575C6.0129 20.059 5.67266 19.4238 5.5344 18.732L5.49 18.51C4.6978 18.3424 3.97745 17.9323 3.42903 17.3366C2.8806 16.7409 2.53133 15.9891 2.42973 15.1858C2.32812 14.3825 2.47924 13.5675 2.86207 12.854C3.24491 12.1405 3.84046 11.5639 4.566 11.2044C4.26152 10.9236 4.0185 10.5827 3.85225 10.2033C3.68599 9.82393 3.60011 9.41422 3.6 9V8.7624C3.60035 8.01396 3.8598 7.28873 4.33428 6.70991C4.80875 6.13109 5.46898 5.73439 6.2028 5.5872L6.69 5.4912L6.84 4.7376ZM16.8 13.098V13.8C16.8 14.2774 16.6104 14.7352 16.2728 15.0728C15.9352 15.4104 15.4774 15.6 15 15.6H12.6V18.0324C12.601 18.6192 12.8199 19.1848 13.2142 19.6194C13.6086 20.054 14.1502 20.3266 14.7342 20.3845C15.3182 20.4423 15.9028 20.2812 16.3748 19.9324C16.8467 19.5837 17.1723 19.072 17.2884 18.4968L17.412 17.8824C17.4353 17.7663 17.4923 17.6597 17.576 17.576C17.6597 17.4923 17.7663 17.4353 17.8824 17.412L18.2316 17.3412C18.8702 17.2117 19.4403 16.8555 19.8367 16.3384C20.2331 15.8212 20.4289 15.1781 20.3879 14.5278C20.3469 13.8775 20.072 13.264 19.6139 12.8007C19.1557 12.3373 18.5454 12.0555 17.8956 12.0072C17.8055 12.259 17.6604 12.4875 17.4709 12.6762C17.2814 12.8649 17.0522 13.009 16.8 13.098ZM15.6 13.098C15.3162 12.9974 15.0622 12.8273 14.8612 12.6031C14.6602 12.379 14.5187 12.108 14.4495 11.815C14.3803 11.522 14.3858 11.2163 14.4653 10.9259C14.5448 10.6356 14.6959 10.3698 14.9047 10.1529C15.1136 9.93604 15.3734 9.77501 15.6606 9.68457C15.9478 9.59412 16.253 9.57715 16.5484 9.6352C16.8438 9.69325 17.12 9.82448 17.3516 10.0169C17.5831 10.2092 17.7628 10.4566 17.874 10.7364C18.2549 10.6324 18.591 10.4061 18.8306 10.0924C19.0702 9.77862 19.2 9.39479 19.2 9V8.7624C19.2 7.7904 18.5148 6.9552 17.562 6.7644L16.6824 6.588C16.5663 6.56474 16.4597 6.50766 16.376 6.42396C16.2923 6.34026 16.2353 6.23366 16.212 6.1176L15.9828 4.9728C15.9005 4.55633 15.666 4.18545 15.3251 3.93249C14.9842 3.67953 14.5613 3.56263 14.1388 3.60459C13.7164 3.64655 13.3247 3.84436 13.0402 4.15944C12.7557 4.47452 12.5988 4.88428 12.6 5.3088V14.4H15C15.1591 14.4 15.3117 14.3368 15.4243 14.2243C15.5368 14.1117 15.6 13.9591 15.6 13.8V13.098ZM11.4 7.2V5.3076C11.4009 4.88318 11.2438 4.47363 10.9592 4.15878C10.6746 3.84393 10.2829 3.64634 9.86058 3.60454C9.43823 3.56274 9.01545 3.67972 8.67465 3.93268C8.33386 4.18563 8.09948 4.55643 8.0172 4.9728L7.7892 6.1176C7.76585 6.23382 7.7086 6.34053 7.62467 6.42425C7.54074 6.50797 7.43388 6.56495 7.3176 6.588L6.438 6.7644C5.97631 6.8572 5.56095 7.10687 5.26239 7.47104C4.96383 7.83522 4.80046 8.29148 4.8 8.7624V9C4.8 9.47739 4.98964 9.93522 5.32721 10.2728C5.66477 10.6104 6.12261 10.8 6.6 10.8H7.8C8.27739 10.8 8.73523 10.9896 9.07279 11.3272C9.41036 11.6648 9.6 12.1226 9.6 12.6V13.302C10.0003 13.4435 10.3377 13.722 10.5526 14.0883C10.7674 14.4545 10.8459 14.8849 10.7741 15.3034C10.7023 15.7219 10.4848 16.1016 10.1602 16.3753C9.83555 16.6489 9.42461 16.7991 9 16.7991C8.57539 16.7991 8.16444 16.6489 7.8398 16.3753C7.51516 16.1016 7.29772 15.7219 7.22592 15.3034C7.15412 14.8849 7.23257 14.4545 7.44742 14.0883C7.66227 13.722 7.99967 13.4435 8.4 13.302V12.6C8.4 12.4409 8.33678 12.2883 8.22426 12.1757C8.11174 12.0632 7.95913 12 7.8 12H6.2976C5.62954 12.0019 4.98597 12.2517 4.49149 12.7009C3.99701 13.1501 3.68681 13.7668 3.62094 14.4316C3.55507 15.0964 3.73823 15.762 4.13494 16.2995C4.53166 16.837 5.11371 17.2082 5.7684 17.3412L6.1176 17.412C6.23366 17.4353 6.34026 17.4923 6.42396 17.576C6.50766 17.6597 6.56474 17.7663 6.588 17.8824L6.7116 18.4968C6.8277 19.072 7.15329 19.5837 7.62522 19.9324C8.09716 20.2812 8.6818 20.4423 9.26578 20.3845C9.84975 20.3266 10.3914 20.054 10.7858 19.6194C11.1801 19.1848 11.399 18.6192 11.4 18.0324V8.4H10.698C10.5565 8.80033 10.278 9.13773 9.91171 9.35258C9.54546 9.56742 9.11506 9.64588 8.69656 9.57408C8.27806 9.50227 7.89842 9.28483 7.62474 8.96019C7.35105 8.63555 7.20094 8.22461 7.20094 7.8C7.20094 7.37539 7.35105 6.96444 7.62474 6.6398C7.89842 6.31516 8.27806 6.09772 8.69656 6.02592C9.11506 5.95412 9.54546 6.03257 9.91171 6.24742C10.278 6.46227 10.5565 6.79967 10.698 7.2H11.4ZM9.6 7.8C9.6 7.64087 9.53678 7.48826 9.42426 7.37573C9.31174 7.26321 9.15913 7.2 9 7.2C8.84087 7.2 8.68826 7.26321 8.57573 7.37573C8.46321 7.48826 8.4 7.64087 8.4 7.8C8.4 7.95913 8.46321 8.11174 8.57573 8.22426C8.68826 8.33678 8.84087 8.4 9 8.4C9.15913 8.4 9.31174 8.33678 9.42426 8.22426C9.53678 8.11174 9.6 7.95913 9.6 7.8ZM9 15.6C9.15913 15.6 9.31174 15.5368 9.42426 15.4243C9.53678 15.3117 9.6 15.1591 9.6 15C9.6 14.8409 9.53678 14.6883 9.42426 14.5757C9.31174 14.4632 9.15913 14.4 9 14.4C8.84087 14.4 8.68826 14.4632 8.57573 14.5757C8.46321 14.6883 8.4 14.8409 8.4 15C8.4 15.1591 8.46321 15.3117 8.57573 15.4243C8.68826 15.5368 8.84087 15.6 9 15.6ZM16.2 12C16.3591 12 16.5117 11.9368 16.6243 11.8243C16.7368 11.7117 16.8 11.5591 16.8 11.4C16.8 11.2409 16.7368 11.0883 16.6243 10.9757C16.5117 10.8632 16.3591 10.8 16.2 10.8C16.0409 10.8 15.8883 10.8632 15.7757 10.9757C15.6632 11.0883 15.6 11.2409 15.6 11.4C15.6 11.5591 15.6632 11.7117 15.7757 11.8243C15.8883 11.9368 16.0409 12 16.2 12Z" fill="currentColor"/>
</svg>
