<svg xmlns="http://www.w3.org/2000/svg" width="60" height="60" viewBox="0 0 60 60" fill="none">
    <path d="M30 8.75C34.5 8.75 38.75 10.625 41.875 13.75C45 16.875 46.875 21.125 46.875 25.625C46.875 30.125 45 34.375 41.875 37.5C38.75 40.625 34.5 42.5 30 42.5C25.5 42.5 21.25 40.625 18.125 37.5C15 34.375 13.125 30.125 13.125 25.625C13.125 21.125 15 16.875 18.125 13.75C21.25 10.625 25.5 8.75 30 8.75ZM30 16.875C28.125 16.875 26.25 17.75 25 19C23.75 20.25 22.875 22.125 22.875 24C22.875 25.875 23.75 27.75 25 29C26.25 30.25 28.125 31.125 30 31.125C31.875 31.125 33.75 30.25 35 29C36.25 27.75 37.125 25.875 37.125 24C37.125 22.125 36.25 20.25 35 19C33.75 17.75 31.875 16.875 30 16.875ZM30 32.5C25.75 32.5 17.5 34.625 17.5 38.75V42.5H42.5V38.75C42.5 34.625 34.25 32.5 30 32.5Z" stroke="black" stroke-width="1.5" stroke-linecap="round" stroke-linejoin="round"/>
</svg> 