<svg width="43" height="12" viewBox="0 0 43 12" fill="none" xmlns="http://www.w3.org/2000/svg">
<path d="M8.25167 4.5259C8.25167 5.48671 8.06954 6.30412 7.7053 6.97812C7.34391 7.65213 6.8506 8.16695 6.22535 8.5226C5.60298 8.87537 4.90316 9.05176 4.1259 9.05176C3.34291 9.05176 2.64022 8.87394 2.01785 8.5183C1.39547 8.16265 0.903587 7.64783 0.542206 6.97382C0.180825 6.29982 0.000134446 5.48384 0.000134446 4.5259C0.000134446 3.56508 0.180825 2.74767 0.542206 2.07367C0.903587 1.39966 1.39547 0.886272 2.01785 0.533495C2.64022 0.17785 3.34291 2.76806e-05 4.1259 2.76806e-05C4.90316 2.76806e-05 5.60298 0.17785 6.22535 0.533495C6.8506 0.886272 7.34391 1.39966 7.7053 2.07367C8.06954 2.74767 8.25167 3.56508 8.25167 4.5259ZM6.36302 4.5259C6.36302 3.90352 6.26981 3.37865 6.08338 2.95131C5.89982 2.52396 5.64026 2.19986 5.30469 1.97902C4.96912 1.75818 4.57619 1.64775 4.1259 1.64775C3.67561 1.64775 3.28268 1.75818 2.94711 1.97902C2.61154 2.19986 2.35055 2.52396 2.16412 2.95131C1.98056 3.37865 1.88878 3.90352 1.88878 4.5259C1.88878 5.14827 1.98056 5.67314 2.16412 6.10048C2.35055 6.52783 2.61154 6.85193 2.94711 7.07277C3.28268 7.29362 3.67561 7.40404 4.1259 7.40404C4.57619 7.40404 4.96912 7.29362 5.30469 7.07277C5.64026 6.85193 5.89982 6.52783 6.08338 6.10048C6.26981 5.67314 6.36302 5.14827 6.36302 4.5259ZM9.59717 11.4093V2.32319H11.4041V3.43315H11.4858C11.5661 3.25533 11.6823 3.07464 11.8343 2.89108C11.9892 2.70465 12.1899 2.54977 12.4366 2.42644C12.6861 2.30025 12.9959 2.23715 13.3659 2.23715C13.8477 2.23715 14.2923 2.36335 14.6995 2.61574C15.1068 2.86526 15.4323 3.24242 15.6761 3.74721C15.9199 4.24912 16.0418 4.87867 16.0418 5.63585C16.0418 6.37295 15.9228 6.99533 15.6847 7.50299C15.4495 8.00777 15.1283 8.39067 14.721 8.65166C14.3166 8.90979 13.8635 9.03886 13.3616 9.03886C13.0059 9.03886 12.7033 8.98006 12.4538 8.86247C12.2071 8.74488 12.0049 8.59717 11.8472 8.41935C11.6894 8.23866 11.569 8.05653 11.4858 7.87297H11.4299V11.4093H9.59717ZM11.3912 5.62725C11.3912 6.02018 11.4457 6.36292 11.5546 6.65546C11.6636 6.94801 11.8214 7.17602 12.0279 7.33951C12.2344 7.50012 12.4853 7.58043 12.7808 7.58043C13.079 7.58043 13.3314 7.49869 13.5379 7.3352C13.7444 7.16885 13.9008 6.9394 14.0069 6.64686C14.1159 6.35144 14.1704 6.01157 14.1704 5.62725C14.1704 5.24579 14.1173 4.91022 14.0112 4.62054C13.9051 4.33086 13.7487 4.10428 13.5422 3.9408C13.3357 3.77732 13.0819 3.69558 12.7808 3.69558C12.4825 3.69558 12.2301 3.77445 12.0236 3.9322C11.8199 4.08994 11.6636 4.31366 11.5546 4.60333C11.4457 4.89301 11.3912 5.23432 11.3912 5.62725ZM20.2751 9.06037C19.5954 9.06037 19.0103 8.9227 18.5198 8.64736C18.0323 8.36915 17.6565 7.97622 17.3927 7.46857C17.1288 6.95805 16.9969 6.35431 16.9969 5.65736C16.9969 4.97762 17.1288 4.38106 17.3927 3.86767C17.6565 3.35428 18.028 2.95417 18.5069 2.66736C18.9888 2.38055 19.5538 2.23715 20.202 2.23715C20.6379 2.23715 21.0438 2.30742 21.4195 2.44795C21.7981 2.58562 22.1279 2.79356 22.409 3.07177C22.6929 3.34997 22.9138 3.69988 23.0715 4.12149C23.2293 4.54024 23.3081 5.03068 23.3081 5.59283V6.09618H17.7282V4.96041H21.583C21.583 4.69655 21.5256 4.4628 21.4109 4.25916C21.2962 4.05553 21.137 3.89635 20.9333 3.78162C20.7326 3.66403 20.4988 3.60523 20.2321 3.60523C19.9539 3.60523 19.7072 3.66977 19.4921 3.79883C19.2799 3.92503 19.1135 4.09568 18.9931 4.31079C18.8726 4.52303 18.811 4.75965 18.8081 5.02064V6.10048C18.8081 6.42745 18.8683 6.70996 18.9888 6.94801C19.1121 7.18606 19.2856 7.36962 19.5093 7.49869C19.733 7.62775 19.9983 7.69228 20.3052 7.69228C20.5089 7.69228 20.6953 7.6636 20.8645 7.60624C21.0337 7.54888 21.1786 7.46283 21.299 7.34811C21.4195 7.23339 21.5113 7.09285 21.5744 6.9265L23.2694 7.03835C23.1834 7.44563 23.007 7.80127 22.7403 8.10529C22.4764 8.40644 22.1351 8.64162 21.7163 8.81084C21.3005 8.97719 20.8201 9.06037 20.2751 9.06037ZM26.3369 5.11099V8.9313H24.5041V2.32319H26.2508V3.48908H26.3283C26.4745 3.10475 26.7197 2.80073 27.0639 2.57702C27.4081 2.35044 27.8254 2.23715 28.3158 2.23715C28.7747 2.23715 29.1748 2.33753 29.5161 2.5383C29.8575 2.73907 30.1228 3.02588 30.312 3.39873C30.5013 3.76872 30.596 4.2104 30.596 4.72379V8.9313H28.7633V5.05076C28.7661 4.64636 28.6629 4.33086 28.4535 4.10428C28.2441 3.87484 27.9559 3.76011 27.5888 3.76011C27.3421 3.76011 27.1241 3.81317 26.9349 3.91929C26.7484 4.02541 26.6022 4.18029 26.496 4.38392C26.3928 4.58469 26.3397 4.82705 26.3369 5.11099ZM33.5935 8.9313H31.5973L34.6389 0.120488H37.0395L40.0769 8.9313H38.0807L35.8737 2.1339H35.8048L33.5935 8.9313ZM33.4688 5.46807H38.1839V6.9222H33.4688V5.46807ZM43.0002 0.120488V8.9313H41.1373V0.120488H43.0002Z" fill="#294C2A"/>
</svg>
