<svg width="24" height="24" viewBox="0 0 24 24" fill="none"
    xmlns="http://www.w3.org/2000/svg">
    <path d="M9.8205 13.5C9.8205 13.8978 9.66247 14.2794 9.38116 14.5607C9.09986 14.842 8.71832 15 8.3205 15C7.92267 15 7.54114 14.842 7.25984 14.5607C6.97854 14.2794 6.8205 13.8978 6.8205 13.5C6.8205 13.1022 6.97854 12.7207 7.25984 12.4394C7.54114 12.1581 7.92267 12 8.3205 12C8.71832 12 9.09986 12.1581 9.38116 12.4394C9.66247 12.7207 9.8205 13.1022 9.8205 13.5ZM17.2845 13.5C17.2845 13.8978 17.1265 14.2794 16.8452 14.5607C16.5639 14.842 16.1823 15 15.7845 15C15.3867 15 15.0051 14.842 14.7238 14.5607C14.4425 14.2794 14.2845 13.8978 14.2845 13.5C14.2845 13.1022 14.4425 12.7207 14.7238 12.4394C15.0051 12.1581 15.3867 12 15.7845 12C16.1823 12 16.5639 12.1581 16.8452 12.4394C17.1265 12.7207 17.2845 13.1022 17.2845 13.5ZM9 18H15V19.5H9V18ZM0 5.86952C0 5.60702 0.165 5.37752 0.4185 5.29652C1.5495 4.91852 3.0645 4.64852 3.45 3.31502L3.933 1.77452C4.089 1.22702 4.9245 1.22702 5.0805 1.77452L5.58 3.33902C5.8095 4.02602 6.3675 4.58402 7.047 4.81202L8.5875 5.29652C9.138 5.45102 9.138 6.28652 8.5875 6.44252C7.9245 6.68702 6.6135 6.93302 6.138 7.49852C5.58 7.97252 5.319 9.29102 5.0805 9.94652C5.04204 10.0666 4.96669 10.1716 4.86517 10.2465C4.76366 10.3213 4.64113 10.3623 4.515 10.3635C4.38852 10.3644 4.265 10.3252 4.1621 10.2517C4.05919 10.1781 3.98216 10.074 3.942 9.95402L3.426 8.41502C3.30875 8.07208 3.11488 7.76038 2.85913 7.50358C2.60337 7.24679 2.29246 7.05166 1.95 6.93302L0.42 6.44252C0.298716 6.40317 0.192888 6.32665 0.117508 6.22381C0.0421279 6.12097 0.00101735 5.99702 0 5.86952ZM3.75 11.721V22.5H20.25V7.50002H9.7425C10.2255 7.10252 10.4625 6.52202 10.4955 6.00002H10.5V4.09052C10.5 3.48902 10.989 3.00002 11.5905 3.00002H12.4095C13.011 3.00002 13.5 3.48902 13.5 4.09052V6.00002H20.25C20.6478 6.00002 21.0294 6.15805 21.3107 6.43936C21.592 6.72066 21.75 7.10219 21.75 7.50002V9.81752C22.3467 9.81752 22.919 10.0546 23.341 10.4765C23.7629 10.8985 24 11.4708 24 12.0675C24 12.6643 23.7629 13.2366 23.341 13.6585C22.919 14.0805 22.3467 14.3175 21.75 14.3175V22.5C21.75 22.8978 21.592 23.2794 21.3107 23.5607C21.0294 23.842 20.6478 24 20.25 24H3.75C3.35218 24 2.97064 23.842 2.68934 23.5607C2.40804 23.2794 2.25 22.8978 2.25 22.5V14.1825C1.65326 14.1825 1.08097 13.9455 0.65901 13.5235C0.237053 13.1016 0 12.5293 0 11.9325C0 11.3358 0.237053 10.7635 0.65901 10.3415C1.08097 9.91957 1.65326 9.68252 2.25 9.68252V9.62702L2.52 10.4295C2.7225 11.0385 3.183 11.502 3.75 11.721Z" fill="currentColor"/>
</svg>
